<?xml version="1.0" encoding="UTF-8"?>
<!-- Created with Inkscape (http://www.inkscape.org/) -->
<svg width="512" height="512" version="1.1" viewBox="0 0 135.47 135.47" xmlns="http://www.w3.org/2000/svg">
 <rect x="-2.7756e-17" width="135.47" height="135.47" fill="#002b36" fill-rule="evenodd" stroke-width="7.4187"/>
 <g transform="matrix(.31792 0 0 .31792 240.82 11.585)" fill="#2aa198" style="shape-inside:url(#rect6721);white-space:pre" aria-label="VS">
  <path d="m-634.75 324.21 54.844-206.72h32.656l-68.281 233.28h-38.281l-68.281-233.28h32.656z"/>
  <path d="m-380.22 125.46v32.031q-14.375-9.2188-28.906-13.906-14.375-4.6875-29.062-4.6875-22.344 0-35.312 10.469-12.969 10.312-12.969 27.969 0 15.469 8.4375 23.594 8.5938 8.125 31.875 13.594l16.562 3.75q32.812 7.6562 47.812 24.062t15 44.688q0 33.281-20.625 50.781t-60 17.5q-16.406 0-32.969-3.5938-16.562-3.4375-33.281-10.469v-33.594q17.969 11.406 33.906 16.719 16.094 5.3125 32.344 5.3125 23.906 0 37.188-10.625 13.281-10.781 13.281-30 0-17.5-9.2188-26.719-9.0625-9.2188-31.719-14.219l-16.875-3.9062q-32.5-7.3438-47.188-22.188t-14.688-39.844q0-31.25 20.938-50 21.094-18.906 55.938-18.906 13.438 0 28.281 3.125 14.844 2.9688 31.25 9.0625z"/>
 </g>
 <text transform="scale(.26458)" fill="#000000" font-family="sans-serif" font-size="40px" style="line-height:1.25;shape-inside:url(#rect34387);white-space:pre" xml:space="preserve"/>
</svg>
